<?xml version="1.0" encoding="utf-8"?>
<!-- Generator: Adobe Illustrator 15.0.0, SVG Export Plug-In . SVG Version: 6.00 Build 0)  -->
<!DOCTYPE svg PUBLIC "-//W3C//DTD SVG 1.1//EN" "http://www.w3.org/Graphics/SVG/1.1/DTD/svg11.dtd">
<svg version="1.1" id="Ebene_1" xmlns="http://www.w3.org/2000/svg" xmlns:xlink="http://www.w3.org/1999/xlink" x="0px" y="0px"
	 width="226.771px" height="145.984px" viewBox="0 0 226.771 145.984" enable-background="new 0 0 226.771 145.984"
	 xml:space="preserve">
<polygon fill="#FFFFFF" points="203.02,34.989 191.642,34.989 191.642,23.48 182.678,23.48 182.678,34.989 171.299,34.989 
	171.299,43.954 182.678,43.954 182.678,55.462 191.642,55.462 191.642,43.954 203.02,43.954 "/>
<rect x="154.761" y="63.025" fill="#FFFFFF" width="8.996" height="17.994"/>
<rect x="163.755" y="81.018" fill="#FFFFFF" width="8.998" height="9"/>
<g>
	<defs>
		<rect id="SVGID_1_" x="19.771" width="207" height="126"/>
	</defs>
	<clipPath id="SVGID_2_">
		<use xlink:href="#SVGID_1_"  overflow="visible"/>
	</clipPath>
	<path clip-path="url(#SVGID_2_)" fill="#FFFFFF" d="M91.775,54.025h8.996v9h8.998v8.996h-8.998v8.996h8.998v9h-8.998
		c-4.97,0-8.996-4.027-8.996-9C91.809,81.023,91.775,54.025,91.775,54.025"/>
	<path clip-path="url(#SVGID_2_)" fill="#FFFFFF" d="M118.767,63.025h9v17.992h8.996V63.025h8.996v17.992h9.002v9h-26.994
		c-4.971,0-9-4.027-9-9V63.025"/>
	<rect x="55.784" y="72.021" clip-path="url(#SVGID_2_)" fill="#FFFFFF" width="8.997" height="17.995"/>
	<rect x="55.784" y="54.025" clip-path="url(#SVGID_2_)" fill="#FFFFFF" width="8.997" height="8.998"/>
	<path clip-path="url(#SVGID_2_)" fill="#FFFFFF" d="M64.776,63.025l8.996-0.002c4.972,0,9.003,4.029,9.003,8.998v17.996h-8.997
		V72.021H64.78L64.776,63.025"/>
	<polygon clip-path="url(#SVGID_2_)" fill="#FFFFFF" points="184.912,68.25 184.912,104.541 40.987,104.541 40.987,41.719 
		158.678,41.719 158.678,37.225 36.493,37.225 36.493,109.035 189.406,109.035 189.406,68.25 	"/>
</g>
</svg>
