<?xml version="1.0" encoding="utf-8"?>
<!-- Generator: Adobe Illustrator 15.0.0, SVG Export Plug-In . SVG Version: 6.00 Build 0)  -->
<!DOCTYPE svg PUBLIC "-//W3C//DTD SVG 1.1//EN" "http://www.w3.org/Graphics/SVG/1.1/DTD/svg11.dtd">
<svg version="1.1" xmlns="http://www.w3.org/2000/svg" xmlns:xlink="http://www.w3.org/1999/xlink" x="0px" y="0px" width="295px"
	 height="265px" viewBox="0 0 295 265" enable-background="new 0 0 295 265" xml:space="preserve">
<g id="Ebene_4">
	
		<path fill-rule="evenodd" clip-rule="evenodd" fill="#416917" stroke="#5B5959" stroke-linejoin="round" stroke-miterlimit="10" d="
		M82,247.569c4.007,0,34.651,0.982,48.429-1.843c0.496-0.102,1.86-0.327,2.235-1.036c0.15-0.284,0.322,0.447-0.011,1.905
		c0.321-0.091,1.614-2.313,1.899-2.41c0.708-0.24,1.169,0.482,0.711,2.201c0.493-0.332,1.375-2.681,1.888-4.151
		c1.324-3.791,7.094-19.973,8.22-34.764c0.333-4.377-60.37,15.176-63.37,15.176s-63.703-19.553-63.37-15.176
		c1.126,14.791,6.896,30.973,8.22,34.764c0.514,1.471,1.396,3.82,1.888,4.152c-0.458-1.719,0.003-2.441,0.711-2.201
		c0.285,0.096,1.578,2.318,1.899,2.41c-0.333-1.459-0.162-2.189-0.011-1.906c0.375,0.709,1.739,0.936,2.235,1.037
		C47.349,248.551,77.993,247.569,82,247.569z"/>
	
		<path fill-rule="evenodd" clip-rule="evenodd" fill="#76B72A" stroke="#5B5959" stroke-linecap="round" stroke-linejoin="round" stroke-miterlimit="10" d="
		M82,233.604c5.187,0,8.77,5.928,10.124,10.466c2.5,8.374,10.065,10.729,18.75,10.729c11.315,0,16.46-8.012,18.852-17.013
		c3.375-12.706,8.12-17.733,16.148-29.776c3.5-5.25,9.659-13.701,12.488-24.308c2.934-10.999,3.381-18.348,2.037-27.896
		c-2.275-16.172-9.888-27.142-19.836-38.242c-4.975-5.55-11.354-10.794-10.387-22.848c0.771-9.614-0.022-21.011-2.756-25.156
		c-5.931-8.994-12.649-19.577-40.877-20.852c-0.736-0.033-1.376-3.278-4.543-4.07c1.25,1.625,0.711,3.868,0,3.859
		c-0.711,0.008,0-1.735-1.417-2.985c-0.25,2.292-2.391,3.162-3.127,3.195C49.229,49.984,42.51,60.567,36.579,69.561
		c-2.733,4.145-3.526,15.542-2.756,25.156c0.967,12.054-5.412,17.298-10.387,22.848c-9.948,11.101-17.561,22.071-19.836,38.243
		c-1.344,9.549-0.896,16.896,2.037,27.896c2.829,10.605,8.988,19.057,12.488,24.307c8.028,12.043,12.773,17.07,16.148,29.777
		c2.391,9,7.536,17.012,18.852,17.012c8.685,0,16.25-2.355,18.75-10.729C73.23,239.532,76.813,233.604,82,233.604z"/>
	
		<path fill-rule="evenodd" clip-rule="evenodd" fill="#FFFFFF" stroke="#5B5959" stroke-linecap="round" stroke-linejoin="round" stroke-miterlimit="10" d="
		M82,188.662c4.989-2.456,9.319-5.264,13.572-8.313c0.886-0.636,2.513-2.291,4.044-6.635c0.688,1.563,0.719,2.156,0.64,3.068
		c0.596-0.48,3.266-4.506,4.329-7.287c0.563,1.656,0.063,2.844-0.716,4.236c15.37-13.57,25.063-29.878,30.565-41.419
		c0.289-0.605,0.557-2.691-0.02-5.68c1.139-0.011,1.435,2.623,1.706,2.011c2.966-6.718,4.248-11.093,4.248-11.093
		c-4.975-5.55-11.354-10.794-10.387-22.848c0.39-4.867,0.66-9.856,0.329-14.457c-0.077-1.061-0.381-3.708,0.994-2.5
		c-0.375-2.208-1.688-2.787-1.944-3.818c-0.504-2.028-1.212-3.901-2.181-5.557c-3.003-5.135-6.743-9.241-13.986-13.341
		c-6.523-3.693-22.014-4.331-31.193,4.044c-9.179-8.375-24.669-7.738-31.193-4.044c-7.243,4.101-10.982,8.207-13.986,13.341
		c-0.969,1.656-1.676,3.529-2.181,5.557c-0.256,1.031-1.569,1.609-1.944,3.818c1.375-1.208,1.07,1.439,0.994,2.5
		c-0.332,4.6-0.062,9.589,0.329,14.457c0.967,12.054-5.412,17.298-10.387,22.848c0,0,1.282,4.375,4.248,11.093
		c0.271,0.612,0.566-2.022,1.706-2.011c-0.577,2.989-0.309,5.075-0.02,5.68c5.502,11.543,15.196,27.85,30.565,41.42
		c-0.778-1.393-1.278-2.58-0.716-4.236c1.063,2.781,3.733,6.807,4.329,7.287c-0.079-0.912-0.047-1.506,0.64-3.068
		c1.531,4.344,3.158,6,4.044,6.635C72.681,183.399,77.011,186.206,82,188.662z"/>
	<g>
		<g>
			
				<path fill-rule="evenodd" clip-rule="evenodd" fill="#5B5959" stroke="#5B5959" stroke-linecap="round" stroke-linejoin="round" stroke-miterlimit="10" d="
				M76.022,89.228c0.181-6.825-3.947-7.773-6.587-8.042c-4.078-0.417-6.88,3.218-7.351,6.152c-0.717,4.47,2.102,6.378,4.364,7.103
				C68.712,95.164,75.865,95.105,76.022,89.228z"/>
			<g>
				<rect x="63.742" y="85.978" fill-rule="evenodd" clip-rule="evenodd" fill="none" width="12.286" height="15.701"/>
				<path fill="#FFFFFF" d="M69.882,85.775c1.551,1.763,2.498,2.813,2.84,3.149c0.193,0.181,0.29,0.38,0.29,0.598
					c0,0.224-0.086,0.423-0.257,0.598c-0.171,0.174-0.369,0.261-0.593,0.261c-0.448,0-1.464-0.968-3.046-2.906
					c-1.065,1.059-1.847,1.869-2.345,2.429c-0.187,0.181-0.383,0.271-0.589,0.271c-0.224,0-0.424-0.085-0.598-0.257
					s-0.262-0.372-0.262-0.603c0-0.193,0.084-0.383,0.252-0.57l1.477-1.588c0.536-0.561,0.878-0.907,1.028-1.037
					c0.48-0.424,0.891-0.636,1.233-0.636C69.523,85.485,69.713,85.582,69.882,85.775z"/>
			</g>
		</g>
		<g>
			
				<path fill-rule="evenodd" clip-rule="evenodd" fill="#5B5959" stroke="#5B5959" stroke-linecap="round" stroke-linejoin="round" stroke-miterlimit="10" d="
				M87.978,89.228c-0.181-6.825,3.947-7.773,6.587-8.042c4.078-0.417,6.88,3.218,7.351,6.152c0.717,4.47-2.102,6.378-4.364,7.103
				C95.288,95.165,88.135,95.106,87.978,89.228z"/>
			<g>
				<rect x="87.972" y="85.978" fill-rule="evenodd" clip-rule="evenodd" fill="none" width="12.286" height="15.701"/>
				<path fill="#FFFFFF" d="M94.688,85.486c0.342,0,0.753,0.212,1.233,0.636c0.149,0.13,0.492,0.477,1.028,1.037l1.477,1.588
					c0.168,0.187,0.252,0.377,0.252,0.57c0,0.23-0.087,0.431-0.262,0.603s-0.374,0.257-0.598,0.257c-0.206,0-0.402-0.09-0.589-0.271
					c-0.499-0.561-1.28-1.37-2.345-2.429c-1.583,1.938-2.598,2.906-3.046,2.906c-0.224,0-0.422-0.087-0.593-0.261
					c-0.171-0.175-0.257-0.374-0.257-0.598c0-0.218,0.097-0.417,0.29-0.598c0.342-0.336,1.29-1.386,2.84-3.149
					C94.287,85.583,94.477,85.486,94.688,85.486z"/>
			</g>
		</g>
	</g>
	<g>
		<path fill="#FFFFFF" stroke="#5B5959" stroke-miterlimit="10" d="M35.4,252.157c0.688-5.604,4.424-8.061,8.75-7.668
			c4.326,0.395,6.254,3.932,6.292,5.998c0.038,2.064-0.989,7.115-5.014,8.316C39.824,260.475,34.712,257.762,35.4,252.157z"/>
		<path fill="#5B5959" stroke="#5B5959" stroke-linejoin="round" stroke-miterlimit="10" d="M39.739,256.557
			c-2.75,0.344-1.544,2.475-0.96,3.521c1.253-1.275,2.142-1.139,3.049-2.184C42.921,256.637,39.739,256.557,39.739,256.557z"/>
		<path fill="#FFFFFF" stroke="#5B5959" stroke-miterlimit="10" d="M45.819,253.18c0.666-5.418,4.278-7.795,8.46-7.414
			c4.183,0.381,6.047,3.801,6.084,5.799c0.036,1.996-0.957,6.881-4.848,8.041C50.097,261.221,45.154,258.598,45.819,253.18z"/>
		<path fill="#5B5959" stroke="#5B5959" stroke-linejoin="round" stroke-miterlimit="10" d="M49.968,257.903
			c-2.461,0.307-1.382,2.215-0.859,3.15c1.121-1.143,1.917-1.02,2.729-1.953C52.815,257.973,49.968,257.903,49.968,257.903z"/>
		<path fill="#FFFFFF" stroke="#5B5959" stroke-miterlimit="10" d="M57.12,254.915c0.603-4.441,3.068-7.166,8.069-6.26
			c3.739,0.678,5.105,4.279,5.104,6.453c0,1.637-0.597,4.512-4.122,5.463C61.265,261.895,56.517,259.356,57.12,254.915z"/>
		<path fill="#5B5959" stroke="#5B5959" stroke-linejoin="round" stroke-miterlimit="10" d="M60.15,258.836
			c-2.345,0.293-1.317,2.111-0.818,3.002c1.068-1.088,1.826-0.969,2.6-1.861C62.864,258.905,60.15,258.836,60.15,258.836z"/>
		<path fill="#FFFFFF" stroke="#5B5959" stroke-miterlimit="10" d="M128.6,252.157c-0.688-5.604-4.424-8.062-8.75-7.668
			c-4.326,0.394-6.254,3.932-6.292,5.997c-0.038,2.064,0.989,7.116,5.014,8.317C124.176,260.475,129.288,257.761,128.6,252.157z"/>
		<path fill="#5B5959" stroke="#5B5959" stroke-linejoin="round" stroke-miterlimit="10" d="M124.261,256.557
			c2.75,0.344,1.544,2.475,0.96,3.521c-1.253-1.275-2.142-1.138-3.049-2.183C121.079,256.636,124.261,256.557,124.261,256.557z"/>
		<path fill="#FFFFFF" stroke="#5B5959" stroke-miterlimit="10" d="M118.181,253.18c-0.666-5.419-4.278-7.795-8.46-7.415
			c-4.183,0.381-6.047,3.802-6.084,5.799c-0.036,1.996,0.957,6.882,4.848,8.042C113.903,261.221,118.846,258.597,118.181,253.18z"/>
		<path fill="#5B5959" stroke="#5B5959" stroke-linejoin="round" stroke-miterlimit="10" d="M114.032,257.902
			c2.461,0.308,1.382,2.215,0.859,3.15c-1.121-1.142-1.917-1.019-2.729-1.953C111.185,257.973,114.032,257.902,114.032,257.902z"/>
		<path fill="#FFFFFF" stroke="#5B5959" stroke-miterlimit="10" d="M106.88,254.915c-0.603-4.441-3.068-7.167-8.069-6.26
			c-3.739,0.678-5.105,4.279-5.104,6.452c0,1.637,0.597,4.512,4.122,5.464C102.735,261.895,107.483,259.356,106.88,254.915z"/>
		<path fill="#5B5959" stroke="#5B5959" stroke-linejoin="round" stroke-miterlimit="10" d="M103.85,258.836
			c2.345,0.293,1.317,2.11,0.818,3.002c-1.068-1.088-1.826-0.97-2.6-1.861C101.136,258.904,103.85,258.836,103.85,258.836z"/>
	</g>
	<g>
		<g>
			<linearGradient id="SVGID_1_" gradientUnits="userSpaceOnUse" x1="126.2837" y1="160.5605" x2="132.4681" y2="164.8909">
				<stop  offset="0" style="stop-color:#75B72C;stop-opacity:0"/>
				<stop  offset="0.5899" style="stop-color:#52852D;stop-opacity:0.5899"/>
				<stop  offset="1" style="stop-color:#426A2A"/>
			</linearGradient>
			<path fill-rule="evenodd" clip-rule="evenodd" fill="url(#SVGID_1_)" d="M130.892,154.76c0.625,0.25,1.578,1.375,1.578,1.375
				c2.11,3.75,1.64,6.5,0,8.75s-0.14-1-1.64-2.75s-1.5,4.5-2.75,6s-2.122,0.667-3.686,0.167c0,0-1.439-0.917-2.189-1.917"/>
			
				<path fill-rule="evenodd" clip-rule="evenodd" fill="none" stroke="#5B5959" stroke-linecap="round" stroke-linejoin="round" stroke-miterlimit="10" d="
				M132.469,156.135c2.11,3.75,1.64,6.5,0,8.75s-0.14-1-1.64-2.75s-1.5,4.5-2.75,6s-2.122,0.667-3.686,0.167"/>
		</g>
		<g>
			
				<linearGradient id="SVGID_2_" gradientUnits="userSpaceOnUse" x1="65.2954" y1="230.8955" x2="71.0927" y2="234.9548" gradientTransform="matrix(0.9786 0.206 -0.206 0.9786 105.0233 -47.9995)">
				<stop  offset="0" style="stop-color:#75B72C;stop-opacity:0"/>
				<stop  offset="0.5899" style="stop-color:#52852D;stop-opacity:0.5899"/>
				<stop  offset="1" style="stop-color:#426A2A"/>
			</linearGradient>
			<path fill-rule="evenodd" clip-rule="evenodd" fill="url(#SVGID_2_)" d="M125.339,187.676c0.38,0.283,0.838,1.298,0.838,1.298
				c0.806,3.229,5.368,2.44,3.893,3.964c-1.475,1.524-4.784,1.771-6.44,0.988c-1.571-0.742-1.295,2.803-2.385,3.797
				c-1.089,0.994-1.54,0.22-2.511-0.393c0,0-0.819-0.921-1.16-1.808"/>
			
				<path fill-rule="evenodd" clip-rule="evenodd" fill="none" stroke="#5B5959" stroke-linecap="round" stroke-linejoin="round" stroke-miterlimit="10" d="
				M126.177,188.974c0.806,3.229,5.368,2.44,3.893,3.964c-1.475,1.524-5.05,1.882-6.44,0.988c-1.461-0.939-1.295,2.803-2.385,3.797
				c-1.089,0.994-1.54,0.22-2.511-0.393"/>
		</g>
		<g>
			<linearGradient id="SVGID_3_" gradientUnits="userSpaceOnUse" x1="128.8018" y1="208.4849" x2="133.8271" y2="212.0036">
				<stop  offset="0" style="stop-color:#75B72C;stop-opacity:0"/>
				<stop  offset="0.5899" style="stop-color:#52852D;stop-opacity:0.5899"/>
				<stop  offset="1" style="stop-color:#426A2A"/>
			</linearGradient>
			<path fill-rule="evenodd" clip-rule="evenodd" fill="url(#SVGID_3_)" d="M132.546,203.771c0.508,0.203,1.282,1.117,1.282,1.117
				c1.715,3.048,1.333,5.282,0,7.11c-1.333,1.829-0.114-0.813-1.333-2.234c-1.219-1.422-1.219,3.656-2.235,4.876
				c-1.016,1.219-1.724,0.542-2.995,0.136c0,0-1.169-0.745-1.779-1.559"/>
			
				<path fill-rule="evenodd" clip-rule="evenodd" fill="none" stroke="#5B5959" stroke-linecap="round" stroke-linejoin="round" stroke-miterlimit="10" d="
				M133.829,204.888c1.715,3.048,1.333,5.282,0,7.11c-1.333,1.829-0.114-0.813-1.333-2.234c-1.219-1.422-1.219,3.656-2.235,4.876
				c-1.016,1.219-1.724,0.542-2.995,0.136"/>
		</g>
		<g>
			
				<linearGradient id="SVGID_4_" gradientUnits="userSpaceOnUse" x1="48.2803" y1="226.938" x2="53.7176" y2="230.7452" gradientTransform="matrix(0.9847 0.1741 -0.1741 0.9847 87.2266 -38.1327)">
				<stop  offset="0" style="stop-color:#75B72C;stop-opacity:0"/>
				<stop  offset="0.5899" style="stop-color:#52852D;stop-opacity:0.5899"/>
				<stop  offset="1" style="stop-color:#426A2A"/>
			</linearGradient>
			<path fill-rule="evenodd" clip-rule="evenodd" fill="url(#SVGID_4_)" d="M100.135,189.422c0.503,0.313,1.156,1.433,1.156,1.433
				c1.252,3.568,0.425,5.878-1.339,7.574c-1.764,1.698,0.032-0.887-0.999-2.631c-1.03-1.745-1.987,3.666-3.299,4.773
				c-1.311,1.106-1.939,0.252-3.216-0.42c0,0-1.105-1.014-1.602-1.994"/>
			
				<path fill-rule="evenodd" clip-rule="evenodd" fill="none" stroke="#5B5959" stroke-linecap="round" stroke-linejoin="round" stroke-miterlimit="10" d="
				M101.291,190.855c1.252,3.568,0.425,5.878-1.339,7.574c-1.764,1.698,0.032-0.887-0.999-2.631
				c-1.03-1.745-1.987,3.666-3.299,4.773c-1.311,1.106-1.939,0.252-3.216-0.42"/>
		</g>
		<g>
			
				<linearGradient id="SVGID_5_" gradientUnits="userSpaceOnUse" x1="29.7373" y1="296.3594" x2="33.7803" y2="299.1903" gradientTransform="matrix(0.9469 0.3215 -0.3215 0.9469 177.7546 -61.274)">
				<stop  offset="0" style="stop-color:#75B72C;stop-opacity:0"/>
				<stop  offset="0.5899" style="stop-color:#52852D;stop-opacity:0.5899"/>
				<stop  offset="1" style="stop-color:#426A2A"/>
			</linearGradient>
			<path fill-rule="evenodd" clip-rule="evenodd" fill="url(#SVGID_5_)" d="M114.705,226.288c0.334,0.285,0.688,1.183,0.688,1.183
				c0.518,2.764-0.351,4.367-1.839,5.416c-1.488,1.048,0.124-0.648-0.437-2.047s-1.874,2.47-2.963,3.137
				c-1.089,0.665-1.454-0.034-2.317-0.672c0,0-0.698-0.87-0.952-1.646"/>
			
				<path fill-rule="evenodd" clip-rule="evenodd" fill="none" stroke="#5B5959" stroke-linecap="round" stroke-linejoin="round" stroke-miterlimit="10" d="
				M115.392,227.47c0.518,2.764-0.351,4.367-1.839,5.416c-1.488,1.048,0.124-0.648-0.437-2.047s-1.874,2.47-2.963,3.137
				c-1.089,0.665-1.454-0.034-2.317-0.672"/>
		</g>
		<g>
			
				<linearGradient id="SVGID_6_" gradientUnits="userSpaceOnUse" x1="469.4072" y1="160.5605" x2="475.5917" y2="164.8909" gradientTransform="matrix(-1 0 0 1 507.124 0)">
				<stop  offset="0" style="stop-color:#75B72C;stop-opacity:0"/>
				<stop  offset="0.5899" style="stop-color:#52852D;stop-opacity:0.5899"/>
				<stop  offset="1" style="stop-color:#426A2A"/>
			</linearGradient>
			<path fill-rule="evenodd" clip-rule="evenodd" fill="url(#SVGID_6_)" d="M33.108,154.76c-0.625,0.25-1.578,1.375-1.578,1.375
				c-2.11,3.75-1.64,6.5,0,8.75s0.14-1,1.64-2.75s1.5,4.5,2.75,6s2.122,0.668,3.686,0.168c0,0,1.439-0.918,2.189-1.918"/>
			
				<path fill-rule="evenodd" clip-rule="evenodd" fill="none" stroke="#5B5959" stroke-linecap="round" stroke-linejoin="round" stroke-miterlimit="10" d="
				M31.531,156.135c-2.11,3.75-1.64,6.5,0,8.75s0.14-1,1.64-2.75s1.5,4.5,2.75,6s2.122,0.668,3.686,0.168"/>
		</g>
		<g>
			
				<linearGradient id="SVGID_7_" gradientUnits="userSpaceOnUse" x1="401.0449" y1="160.2188" x2="406.8422" y2="164.278" gradientTransform="matrix(-0.9786 0.206 0.206 0.9786 402.0997 -47.9995)">
				<stop  offset="0" style="stop-color:#75B72C;stop-opacity:0"/>
				<stop  offset="0.5899" style="stop-color:#52852D;stop-opacity:0.5899"/>
				<stop  offset="1" style="stop-color:#426A2A"/>
			</linearGradient>
			<path fill-rule="evenodd" clip-rule="evenodd" fill="url(#SVGID_7_)" d="M38.661,187.676c-0.38,0.283-0.838,1.299-0.838,1.299
				c-0.806,3.229-5.368,2.439-3.893,3.963c1.475,1.525,4.784,1.771,6.44,0.988c1.571-0.742,1.295,2.803,2.385,3.797
				c1.089,0.994,1.54,0.221,2.511-0.393c0,0,0.819-0.92,1.16-1.807"/>
			
				<path fill-rule="evenodd" clip-rule="evenodd" fill="none" stroke="#5B5959" stroke-linecap="round" stroke-linejoin="round" stroke-miterlimit="10" d="
				M37.823,188.975c-0.806,3.229-5.368,2.439-3.893,3.963c1.475,1.525,5.05,1.883,6.44,0.988c1.461-0.939,1.295,2.803,2.385,3.797
				c1.089,0.994,1.54,0.221,2.511-0.393"/>
		</g>
		<g>
			
				<linearGradient id="SVGID_8_" gradientUnits="userSpaceOnUse" x1="471.9248" y1="208.4849" x2="476.9501" y2="212.0036" gradientTransform="matrix(-1 0 0 1 507.124 0)">
				<stop  offset="0" style="stop-color:#75B72C;stop-opacity:0"/>
				<stop  offset="0.5899" style="stop-color:#52852D;stop-opacity:0.5899"/>
				<stop  offset="1" style="stop-color:#426A2A"/>
			</linearGradient>
			<path fill-rule="evenodd" clip-rule="evenodd" fill="url(#SVGID_8_)" d="M31.454,203.772c-0.508,0.203-1.282,1.117-1.282,1.117
				c-1.715,3.047-1.333,5.281,0,7.109c1.333,1.83,0.114-0.813,1.333-2.234c1.219-1.422,1.219,3.656,2.235,4.877
				c1.016,1.219,1.724,0.541,2.995,0.135c0,0,1.169-0.744,1.779-1.559"/>
			
				<path fill-rule="evenodd" clip-rule="evenodd" fill="none" stroke="#5B5959" stroke-linecap="round" stroke-linejoin="round" stroke-miterlimit="10" d="
				M30.171,204.889c-1.715,3.047-1.333,5.281,0,7.109c1.333,1.83,0.114-0.813,1.333-2.234c1.219-1.422,1.219,3.656,2.235,4.877
				c1.016,1.219,1.724,0.541,2.995,0.135"/>
		</g>
		<g>
			
				<linearGradient id="SVGID_9_" gradientUnits="userSpaceOnUse" x1="386.1729" y1="167.1982" x2="391.6085" y2="171.0043" gradientTransform="matrix(-0.9847 0.1741 0.1741 0.9847 419.8965 -38.1327)">
				<stop  offset="0" style="stop-color:#75B72C;stop-opacity:0"/>
				<stop  offset="0.5899" style="stop-color:#52852D;stop-opacity:0.5899"/>
				<stop  offset="1" style="stop-color:#426A2A"/>
			</linearGradient>
			<path fill-rule="evenodd" clip-rule="evenodd" fill="url(#SVGID_9_)" d="M63.865,189.422c-0.503,0.313-1.156,1.434-1.156,1.434
				c-1.252,3.568-0.425,5.877,1.339,7.574s-0.032-0.887,0.999-2.631c1.03-1.746,1.987,3.666,3.299,4.773
				c1.311,1.105,1.939,0.252,3.216-0.42c0,0,1.105-1.014,1.602-1.994"/>
			
				<path fill-rule="evenodd" clip-rule="evenodd" fill="none" stroke="#5B5959" stroke-linecap="round" stroke-linejoin="round" stroke-miterlimit="10" d="
				M62.709,190.856c-1.252,3.568-0.425,5.877,1.339,7.574s-0.032-0.887,0.999-2.631c1.03-1.746,1.987,3.666,3.299,4.773
				c1.311,1.105,1.939,0.252,3.216-0.42"/>
		</g>
		<g>
			
				<linearGradient id="SVGID_10_" gradientUnits="userSpaceOnUse" x1="354.6465" y1="186.0444" x2="358.6895" y2="188.8754" gradientTransform="matrix(-0.9469 0.3215 0.3215 0.9469 329.3685 -61.274)">
				<stop  offset="0" style="stop-color:#75B72C;stop-opacity:0"/>
				<stop  offset="0.5899" style="stop-color:#52852D;stop-opacity:0.5899"/>
				<stop  offset="1" style="stop-color:#426A2A"/>
			</linearGradient>
			<path fill-rule="evenodd" clip-rule="evenodd" fill="url(#SVGID_10_)" d="M49.295,226.288c-0.334,0.285-0.688,1.184-0.688,1.184
				c-0.518,2.764,0.351,4.367,1.839,5.416c1.488,1.047-0.124-0.648,0.437-2.047s1.874,2.469,2.963,3.137
				c1.089,0.664,1.454-0.035,2.317-0.672c0,0,0.698-0.871,0.952-1.646"/>
			
				<path fill-rule="evenodd" clip-rule="evenodd" fill="none" stroke="#5B5959" stroke-linecap="round" stroke-linejoin="round" stroke-miterlimit="10" d="
				M48.608,227.471c-0.518,2.764,0.351,4.367,1.839,5.416c1.488,1.047-0.124-0.648,0.437-2.047s1.874,2.469,2.963,3.137
				c1.089,0.664,1.454-0.035,2.317-0.672"/>
		</g>
	</g>
	<g>
		<path fill-rule="evenodd" clip-rule="evenodd" fill="none" stroke="#5B5959" stroke-linecap="round" stroke-miterlimit="10" d="
			M22.571,147.01c-4.514,9.779-7.093,26.895-6.125,37.375c1.001,10.84,1.245,19.688,7.163,31.641"/>
		<path fill-rule="evenodd" clip-rule="evenodd" fill="none" stroke="#5B5959" stroke-linecap="round" stroke-miterlimit="10" d="
			M141.429,147.01c4.514,9.779,7.093,26.894,6.125,37.375c-1.001,10.839-1.245,19.688-7.163,31.641"/>
	</g>
	
		<path fill-rule="evenodd" clip-rule="evenodd" fill="none" stroke="#5B5959" stroke-linecap="round" stroke-linejoin="round" stroke-miterlimit="10" d="
		M82,92.532c5.429,9.354,20.001,7.783,24.929,6.476c5.8-1.538,12.336-7.434,10.655-16.391c-1.103-5.88-9.401-14.717-19.821-13.731
		C92.116,69.42,84.428,71.49,82,80.005c-2.428-8.516-10.116-10.585-15.762-11.12c-10.42-0.986-18.718,7.851-19.821,13.731
		c-1.681,8.957,4.855,14.853,10.655,16.391C61.999,100.314,76.571,101.885,82,92.532z"/>
	
		<path fill-rule="evenodd" clip-rule="evenodd" fill="#5B5959" stroke="#5B5959" stroke-linecap="round" stroke-linejoin="round" stroke-miterlimit="10" d="
		M82,116.45c1.136-4.078,2.333-4.617,2.917-7.95c-0.321-2.33-1.458-3.914-2.917-5.382c-1.458,1.468-2.595,3.052-2.917,5.382
		C79.667,111.833,80.864,112.372,82,116.45z"/>
	<g>
		<g>
			
				<linearGradient id="SVGID_11_" gradientUnits="userSpaceOnUse" x1="450.3906" y1="114.5288" x2="459.174" y2="118.6246" gradientTransform="matrix(-1 0 0 1 507.124 0)">
				<stop  offset="0" style="stop-color:#FFFFFF"/>
				<stop  offset="0.1461" style="stop-color:#FBFBFB"/>
				<stop  offset="0.3043" style="stop-color:#EEEEEE"/>
				<stop  offset="0.4683" style="stop-color:#D8D8D8"/>
				<stop  offset="0.6361" style="stop-color:#BABABA"/>
				<stop  offset="0.807" style="stop-color:#939393"/>
				<stop  offset="0.9782" style="stop-color:#646464"/>
				<stop  offset="1" style="stop-color:#5D5D5D"/>
			</linearGradient>
			<path fill-rule="evenodd" clip-rule="evenodd" fill="url(#SVGID_11_)" d="M54.571,110.712c-2.167-0.333-4.347,0.461-4.347,0.461
				c-1.655,0.569-4,2.375-4,3.75c1.313-0.75,2.496-1.066,3.211-0.064c0.625,0.875,0.118,1.628-0.257,3.003
				c1.139,0.123,2.268,0.482,3.045,1.123c0.733,0.604,0.25,2.74,2.438,2.74c0,0,2.993-0.424,3.91-3.257"/>
			
				<path fill-rule="evenodd" clip-rule="evenodd" fill="none" stroke="#5B5959" stroke-linecap="round" stroke-linejoin="round" stroke-miterlimit="10" d="
				M54.662,121.726c-2.188,0-1.705-2.136-2.438-2.74c-0.778-0.641-1.906-1-3.045-1.123c0.375-1.375,0.882-2.128,0.257-3.003
				c-0.715-1.002-1.899-0.686-3.211,0.064c0-1.375,2.345-3.181,4-3.75"/>
		</g>
		<g>
			<linearGradient id="SVGID_12_" gradientUnits="userSpaceOnUse" x1="107.2661" y1="114.5288" x2="116.0504" y2="118.625">
				<stop  offset="0" style="stop-color:#FFFFFF"/>
				<stop  offset="0.1461" style="stop-color:#FBFBFB"/>
				<stop  offset="0.3043" style="stop-color:#EEEEEE"/>
				<stop  offset="0.4683" style="stop-color:#D8D8D8"/>
				<stop  offset="0.6361" style="stop-color:#BABABA"/>
				<stop  offset="0.807" style="stop-color:#939393"/>
				<stop  offset="0.9782" style="stop-color:#646464"/>
				<stop  offset="1" style="stop-color:#5D5D5D"/>
			</linearGradient>
			<path fill-rule="evenodd" clip-rule="evenodd" fill="url(#SVGID_12_)" d="M109.429,110.713c2.167-0.333,4.347,0.461,4.347,0.461
				c1.655,0.569,4,2.375,4,3.75c-1.313-0.75-2.496-1.066-3.211-0.064c-0.625,0.875-0.118,1.628,0.257,3.003
				c-1.139,0.123-2.268,0.482-3.045,1.123c-0.733,0.604-0.25,2.74-2.438,2.74c0,0-2.993-0.424-3.91-3.257"/>
			
				<path fill-rule="evenodd" clip-rule="evenodd" fill="none" stroke="#5B5959" stroke-linecap="round" stroke-linejoin="round" stroke-miterlimit="10" d="
				M109.338,121.726c2.188,0,1.705-2.136,2.438-2.74c0.778-0.641,1.906-1,3.045-1.123c-0.375-1.375-0.882-2.128-0.257-3.003
				c0.715-1.002,1.899-0.686,3.211,0.064c0-1.375-2.345-3.181-4-3.75"/>
		</g>
	</g>
</g>
<g id="Ebene_3">
	<g>
		<path fill="#5B5959" d="M120.407,2.323c0.702-0.235,1.216-0.341,1.543-0.319c0.326,0.023,0.862,0.192,1.609,0.509
			c0.923,0.392,1.617,0.819,2.081,1.282c0.464,0.463,0.923,1.196,1.379,2.2c0.551,1.16,0.772,2.645,0.667,4.453
			c-0.106,1.81-0.505,3.309-1.194,4.499c-0.457,0.803-1.119,1.6-1.987,2.391c-0.879,0.762-1.805,1.21-2.776,1.343
			s-1.833-0.007-2.585-0.419c-0.753-0.411-1.425-0.916-2.017-1.516c-0.593-0.598-1.018-1.235-1.274-1.912
			c-0.258-0.677-0.295-1.231-0.112-1.664c0.458-1.079,0.951-0.905,1.481,0.524c0.331,0.858,0.607,1.161,0.832,0.908
			c0.268-0.304,0.709-1.564,1.324-3.783c0.649-2.297,1.166-3.896,1.549-4.8c0.358-0.845,0.452-1.314,0.285-1.409
			c-0.121-0.098-0.411,0.012-0.869,0.327c-0.486,0.327-0.953,0.36-1.399,0.103c-0.286-0.145-0.448-0.296-0.486-0.45
			c-0.039-0.155,0.005-0.438,0.133-0.848c0.127-0.408,0.296-0.696,0.505-0.863C119.303,2.712,119.741,2.527,120.407,2.323z
			 M126.171,9.632c0.125-0.457-0.023-1.296-0.444-2.517c-0.421-1.222-0.887-1.94-1.397-2.157l-0.707-0.3l-1.336,3.153
			c-0.822,1.992-1.416,3.912-1.782,5.762c-0.366,1.848-0.356,2.89,0.031,3.123c0.438,0.279,1.063,0.156,1.877-0.368
			s1.561-1.25,2.243-2.177c0.683-0.928,1.08-1.797,1.192-2.605C125.962,10.784,126.069,10.145,126.171,9.632z"/>
		<path fill="#5B5959" d="M130.886,11.63c0.36-0.194,0.667-0.29,0.92-0.287s0.626,0.109,1.117,0.317
			c0.531,0.225,0.895,0.442,1.096,0.655c0.199,0.212,0.427,0.592,0.681,1.141c0.351,0.866,0.732,1.387,1.145,1.563
			c1.277,0.541,0.925,2.025-1.054,4.453c-0.374,0.444-0.602,0.806-0.685,1.084c-0.083,0.276-0.127,0.75-0.133,1.42l0.035,1.475
			l1.658,0.599c0.9,0.336,1.408,0.614,1.522,0.837c0.114,0.222-0.125,0.485-0.717,0.791c-0.333,0.183-0.632,0.259-0.896,0.228
			c-0.265-0.03-0.712-0.18-1.34-0.446c-0.688-0.291-1.131-0.543-1.331-0.756c-0.201-0.212-0.406-0.617-0.614-1.216
			c-0.199-0.57-0.379-0.965-0.541-1.185c-0.162-0.22-0.344-0.325-0.543-0.317c-0.201,0.008-0.404,0.05-0.609,0.124
			c-0.205,0.076-0.501,0.118-0.888,0.128c-0.387,0.01-0.807-0.081-1.258-0.272c-0.452-0.191-0.774-0.415-0.967-0.671
			c-0.193-0.255-0.436-0.804-0.728-1.646c-0.325-0.925-0.491-1.546-0.497-1.861c-0.006-0.315,0.158-0.865,0.491-1.651
			c0.358-0.844,0.911-1.67,1.659-2.478C129.157,12.85,129.982,12.175,130.886,11.63z M133.731,15.166
			c-0.237-0.864-0.601-1.344-1.094-1.437c-0.494-0.094-1.207,0.195-2.14,0.865c-0.531,0.378-1.067,1.124-1.609,2.238
			s-0.734,1.866-0.575,2.259c0.135,0.335,0.439,0.574,0.913,0.717c0.472,0.143,0.995,0.138,1.569-0.013
			c0.47-0.125,0.841-0.304,1.113-0.536s0.617-0.677,1.035-1.334c0.543-0.789,0.842-1.305,0.899-1.548
			C133.899,16.135,133.862,15.731,133.731,15.166z"/>
		<path fill="#5B5959" d="M144.217,17.977c1.392-0.221,2.512,0.335,3.36,1.668c0.361,0.569,0.557,1.064,0.588,1.482
			c0.031,0.419-0.104,0.681-0.402,0.785c-0.196,0.08-0.698-0.156-1.507-0.708c-0.719-0.49-1.272-0.73-1.658-0.721
			c-0.387,0.01-0.688,0.271-0.905,0.781c-0.1,0.236-0.112,0.457-0.037,0.662s0.246,0.457,0.513,0.756
			c0.52,0.521,0.928,0.846,1.222,0.971c0.295,0.125,0.651,0.514,1.07,1.166c0.418,0.652,0.693,1.262,0.824,1.826
			c0.103,0.414,0.124,0.719,0.064,0.914s-0.258,0.498-0.595,0.912c-0.809,0.978-1.729,1.55-2.76,1.715s-2.016-0.096-2.953-0.783
			c-0.938-0.686-1.684-1.715-2.237-3.086c-0.393-0.932-0.569-1.596-0.526-1.995c0.041-0.4,0.308-0.634,0.802-0.703
			c0.273-0.046,0.499,0.079,0.676,0.374c0.176,0.294,0.328,0.66,0.456,1.097s0.317,0.876,0.57,1.319
			c0.252,0.442,0.573,0.793,0.962,1.051c0.389,0.258,0.935,0.35,1.638,0.276c1.148-0.139,1.792-0.456,1.934-0.952
			c0.141-0.497-0.261-1.026-1.204-1.588c-1.174-0.729-1.955-1.443-2.343-2.141s-0.444-1.509-0.167-2.434
			c0.282-0.83,0.628-1.455,1.037-1.872C143.047,18.333,143.573,18.076,144.217,17.977z"/>
		<path fill="#5B5959" d="M169.652,19.548c1.499,0.127,2.8,0.857,3.902,2.193c1.102,1.336,1.705,2.918,1.811,4.747
			c0.095,1.36-0.293,2.604-1.164,3.729c-0.871,1.125-2.064,1.889-3.577,2.289c-0.733,0.199-1.676,0.101-2.83-0.295l-1.741-0.564
			l-1.249,2.946c-0.824,1.944-1.391,2.897-1.699,2.859c-0.174-0.027-0.368-0.388-0.584-1.082c-0.137-0.497-0.169-0.929-0.096-1.291
			c0.073-0.364,0.359-1.135,0.859-2.313c0.458-1.08,0.733-1.81,0.824-2.188s0.069-0.712-0.063-1
			c-0.198-0.408-0.263-0.842-0.196-1.299c0.067-0.459,0.23-0.818,0.492-1.078c0.26-0.26,0.548-0.324,0.863-0.191
			c0.196,0.084,0.562-0.422,1.095-1.516c0.414-0.867,0.77-1.435,1.069-1.702c0.298-0.268,0.644-0.318,1.037-0.151
			c0.373,0.158,0.534,0.447,0.484,0.865c-0.05,0.42-0.35,1.277-0.899,2.574l-1.049,2.475l1.187,0.398
			c0.791,0.266,1.661,0.275,2.612,0.029c0.949-0.246,1.625-0.678,2.026-1.296c0.602-0.927,0.868-1.896,0.8-2.911
			c-0.069-1.014-0.446-1.886-1.132-2.617c-0.687-0.731-1.57-1.163-2.648-1.296c-0.617-0.076-1.148-0.012-1.594,0.192
			c-0.446,0.206-0.774,0.461-0.984,0.766s-0.442,0.617-0.694,0.939c-0.253,0.321-0.505,0.521-0.758,0.6s-0.422,0.081-0.508,0.01
			c-0.086-0.071-0.179-0.289-0.278-0.656c-0.28-1.254,0.063-2.296,1.029-3.126C166.962,19.759,168.182,19.412,169.652,19.548z"/>
		<path fill="#5B5959" d="M178.256,26.392c0.231-0.109,0.509-0.066,0.833,0.128c0.322,0.194,0.586,0.487,0.793,0.875
			c0.236,0.425-0.166,1.181-1.206,2.27c-0.385,0.417-1.157,1.717-2.314,3.902c-1.159,2.185-1.888,3.713-2.187,4.582
			c-0.21,0.606-0.301,0.997-0.271,1.172s0.194,0.349,0.492,0.521c0.447,0.259,0.993,0.363,1.64,0.313
			c0.531-0.053,0.937,0.003,1.215,0.167c0.277,0.165,0.354,0.395,0.229,0.688c-0.092,0.216-0.63,0.475-1.614,0.774
			c-0.985,0.302-1.713,0.434-2.184,0.396c-0.452-0.029-0.946-0.228-1.485-0.596c-0.61-0.42-0.912-0.965-0.906-1.635
			s0.322-1.636,0.951-2.899c2.415-4.769,3.921-7.681,4.52-8.736C177.361,27.259,177.858,26.619,178.256,26.392z"/>
		<path fill="#5B5959" d="M181.683,33.476c0.463-0.383,0.957-0.289,1.48,0.28c0.481,0.505,0.626,1.007,0.438,1.507
			c-0.098,0.283-0.304,0.496-0.619,0.641c-0.355,0.127-0.95,1.202-1.784,3.224c-0.834,2.022-1.196,3.229-1.084,3.624
			c0.278,0.93,1.151,0.975,2.618,0.138c0.517-0.291,0.91-0.577,1.18-0.856s0.462-0.557,0.578-0.832
			c0.117-0.274,0.333-0.757,0.648-1.445c0.314-0.688,0.688-1.406,1.119-2.15c0.328-0.556,0.576-0.908,0.744-1.058
			c0.167-0.148,0.366-0.197,0.6-0.145c0.389,0.119,0.705,0.415,0.945,0.887c0.163,0.324,0.225,0.576,0.184,0.756
			c-0.042,0.179-0.252,0.524-0.63,1.036c-0.75,1.003-1.65,3.182-2.701,6.536c-0.15,0.517-0.42,0.813-0.813,0.89
			c-0.392,0.077-0.65-0.119-0.775-0.59c-0.065-0.282-0.141-0.447-0.225-0.494c-0.084-0.048-0.271-0.029-0.563,0.057
			c-0.431,0.142-1.044,0.252-1.843,0.33c-0.798,0.079-1.295,0.077-1.491-0.006c-0.354-0.15-0.716-0.703-1.087-1.66
			c-0.371-0.956-0.522-1.732-0.454-2.33c0.073-0.664,0.599-2.149,1.577-4.458C180.703,35.048,181.356,33.755,181.683,33.476z"/>
		<path fill="#5B5959" d="M192.563,38.471c1.392-0.221,2.512,0.335,3.36,1.667c0.361,0.57,0.557,1.065,0.588,1.483
			c0.031,0.419-0.104,0.681-0.402,0.785c-0.196,0.079-0.698-0.156-1.507-0.708c-0.719-0.49-1.272-0.73-1.659-0.721
			c-0.386,0.01-0.688,0.271-0.904,0.781c-0.1,0.236-0.112,0.456-0.037,0.662c0.075,0.205,0.246,0.457,0.513,0.756
			c0.52,0.521,0.928,0.846,1.222,0.97c0.295,0.126,0.651,0.515,1.07,1.167c0.418,0.652,0.693,1.261,0.824,1.826
			c0.103,0.414,0.124,0.719,0.064,0.914c-0.06,0.194-0.258,0.498-0.595,0.911c-0.809,0.979-1.729,1.55-2.76,1.716
			c-1.032,0.165-2.016-0.097-2.953-0.783c-0.938-0.687-1.684-1.716-2.237-3.086c-0.393-0.932-0.569-1.597-0.526-1.996
			c0.041-0.399,0.308-0.634,0.802-0.702c0.273-0.046,0.499,0.078,0.676,0.374c0.176,0.294,0.328,0.66,0.456,1.097
			c0.127,0.436,0.317,0.876,0.57,1.318c0.252,0.443,0.573,0.794,0.962,1.052c0.389,0.258,0.935,0.35,1.638,0.276
			c1.148-0.139,1.792-0.456,1.934-0.952c0.141-0.497-0.261-1.026-1.204-1.589c-1.174-0.729-1.955-1.442-2.343-2.14
			s-0.444-1.509-0.167-2.435c0.282-0.83,0.628-1.454,1.037-1.871C191.394,38.827,191.92,38.57,192.563,38.471z"/>
		<path fill="#5B5959" d="M219.048,44.867c0.596-0.258,1.052-0.406,1.371-0.445c0.316-0.039,0.652,0.017,1.006,0.167
			c1.08,0.458,1.86,1.461,2.34,3.008c0.201,0.618,0.265,1.085,0.188,1.399c-0.076,0.316-0.297,0.523-0.663,0.623
			c-0.271,0.094-0.616-0.023-1.033-0.351c-0.418-0.328-0.577-0.609-0.477-0.845c0.033-0.078-0.034-0.264-0.2-0.555
			c-0.167-0.29-0.37-0.55-0.608-0.778c-0.24-0.229-0.51-0.314-0.813-0.258c-0.535,0.167-1.542,1.015-3.023,2.542
			c-1.482,1.526-2.376,2.653-2.685,3.38c-0.167,0.394-0.164,0.742,0.008,1.046c0.172,0.306,0.572,0.648,1.198,1.029
			c0.855,0.549,1.192,0.957,1.009,1.228c-0.209,0.328-0.928,0.302-2.156-0.079l-1.388-0.416l-0.399,1.188
			c-0.177,0.527-0.316,1.141-0.416,1.84s-0.361,1.55-0.786,2.551c-0.324,0.767-0.573,1.257-0.746,1.475
			c-0.173,0.216-0.392,0.337-0.657,0.363c-0.438,0.047-0.798-0.142-1.083-0.563c-0.265-0.414-0.317-0.986-0.158-1.718
			c0.159-0.732,0.623-2.001,1.389-3.81c0.683-1.609,1-2.552,0.955-2.826c-0.009-0.144-0.127-0.355-0.355-0.638
			c-0.735-0.89-1.065-1.749-0.994-2.576c0.07-0.712,0.444-0.993,1.123-0.845c0.02,0.009,0.049,0.021,0.089,0.038
			c0.496,0.141,0.889,0.388,1.18,0.743c0.27,0.346,0.52,0.44,0.749,0.282c0.22-0.138,0.753-0.793,1.598-1.964
			c0.528-0.702,1.021-1.316,1.476-1.842c0.454-0.526,0.782-0.891,0.985-1.095c0.202-0.204,0.32-0.345,0.354-0.424
			C217.492,45.585,218.032,45.293,219.048,44.867z"/>
		<path fill="#5B5959" d="M224.172,52.704c0.399-0.178,0.681-0.227,0.845-0.146c0.162,0.08,0.334,0.344,0.516,0.792
			c0.181,0.447,0.234,0.771,0.161,0.972c-0.074,0.2-0.367,0.551-0.88,1.052c-0.568,0.571-1.105,1.473-1.616,2.704
			c-0.511,1.232-0.688,2.102-0.531,2.607c0.099,0.366,0.214,0.589,0.343,0.667c0.127,0.077,0.466,0.128,1.013,0.151
			c0.652,0.045,1.207-0.114,1.662-0.478c0.454-0.363,0.974-1.069,1.558-2.12c0.955-1.703,1.739-2.541,2.353-2.514
			c0.451,0.029,0.746,0.236,0.885,0.619c0.139,0.384,0.114,0.877-0.072,1.48c-0.187,0.605-0.516,1.271-0.986,1.998
			c-0.567,0.849-1.043,1.725-1.426,2.629c-0.383,0.902-0.666,1.501-0.848,1.795c-0.183,0.293-0.443,0.402-0.783,0.328
			c-0.409-0.127-0.605-0.349-0.587-0.666c0.002-0.277-0.147-0.484-0.447-0.624c-0.301-0.139-0.671-0.151-1.114-0.038
			c-0.414,0.104-0.988,0.011-1.723-0.277c-0.452-0.192-0.765-0.383-0.939-0.572c-0.175-0.19-0.345-0.529-0.509-1.016
			c-0.249-0.777-0.333-1.729-0.25-2.852c0.033-0.681,0.133-1.259,0.299-1.732c0.166-0.475,0.347-0.832,0.542-1.074
			c0.195-0.241,0.445-0.587,0.752-1.036c0.306-0.449,0.572-0.939,0.797-1.47C223.427,53.315,223.755,52.921,224.172,52.704z
			 M230.057,48.908c0.129,0.24,0.261,0.354,0.395,0.341c0.133-0.013,0.256-0.088,0.372-0.225c0.116-0.136,0.279-0.194,0.491-0.174
			s0.463,0.208,0.752,0.562c0.154,0.182,0.196,0.442,0.121,0.781c-0.074,0.34-0.319,1-0.736,1.982
			c-0.453,1.013-0.762,1.646-0.927,1.9c-0.166,0.254-0.348,0.34-0.543,0.256c-0.217-0.092-0.438-0.388-0.665-0.89
			c-0.228-0.502-0.517-0.78-0.863-0.835c-0.569-0.078-0.898-0.34-0.988-0.784c-0.09-0.442,0.051-1.131,0.423-2.063
			c0.293-0.802,0.507-1.279,0.642-1.431c0.133-0.152,0.346-0.189,0.638-0.112C229.585,48.325,229.881,48.555,230.057,48.908z"/>
		<path fill="#5B5959" d="M232.174,56.374c0.206-0.214,0.455-0.282,0.747-0.205c0.368,0.063,1.68,0.573,3.939,1.531
			c2.514,1.065,3.864,1.707,4.049,1.925c0.073,0.101,0.078,0.254,0.015,0.458c-0.091,0.379-0.336,0.588-0.735,0.627
			c-0.398,0.039-1.085-0.077-2.058-0.351c-0.789-0.219-1.465-0.303-2.031-0.253c-0.565,0.05-1.011,0.186-1.336,0.407
			c-0.326,0.221-0.616,0.562-0.868,1.021c-0.253,0.461-0.445,0.913-0.574,1.355c-0.131,0.443-0.301,0.996-0.513,1.66
			c-0.211,0.663-0.423,1.216-0.634,1.66c-0.236,0.502-0.42,0.813-0.551,0.93c-0.131,0.119-0.342,0.14-0.634,0.063
			c-0.438-0.117-0.749-0.503-0.933-1.16c-0.114-0.442-0.125-0.87-0.03-1.281c0.093-0.413,0.394-1.218,0.901-2.416
			c0.447-1.108,0.735-1.896,0.863-2.363c0.129-0.467,0.148-0.869,0.061-1.208c-0.154-0.621-0.208-1.107-0.163-1.46
			C231.732,56.963,231.895,56.65,232.174,56.374z"/>
		<path fill="#5B5959" d="M258.436,65.177c0.392,0.166,0.857,0.612,1.396,1.339c0.538,0.727,0.827,1.098,0.866,1.114
			c0.078,0.033,0.158-0.003,0.237-0.107c0.08-0.105,0.171-0.28,0.275-0.526c0.104-0.246,0.217-0.568,0.34-0.968
			c0.123-0.4,0.254-0.871,0.392-1.416c0.24-0.894,0.424-1.465,0.552-1.712c0.128-0.247,0.34-0.447,0.636-0.6
			c0.372-0.167,0.737-0.209,1.097-0.126c0.358,0.082,0.562,0.262,0.606,0.535c0.021,0.171-0.18,0.822-0.601,1.952
			c-0.422,1.131-0.918,2.438-1.489,3.923c-0.572,1.484-0.965,2.562-1.181,3.235c-0.586,1.93-0.992,2.997-1.219,3.202
			c-0.145,0.124-0.431,0.142-0.856,0.055c-0.474-0.086-1.055-0.042-1.742,0.131c-0.687,0.172-1.244,0.214-1.668,0.125
			c-0.506-0.12-1.111-0.44-1.817-0.96c-0.707-0.521-1.165-0.998-1.373-1.435c-0.278-0.604-0.452-1.326-0.523-2.168
			c-0.073-0.842-0.008-1.498,0.191-1.97c0.283-0.667,0.806-1.326,1.568-1.977c0.762-0.649,1.559-1.135,2.389-1.455
			C257.342,65.05,257.984,64.986,258.436,65.177z M258.438,69.106c-0.218-0.579-0.512-0.993-0.881-1.242s-0.724-0.272-1.065-0.069
			c-0.417,0.218-0.854,0.554-1.313,1.008c-0.459,0.453-0.759,0.848-0.9,1.182c-0.184,0.433-0.116,1.011,0.202,1.736
			c0.317,0.727,0.712,1.189,1.184,1.389c0.412,0.175,0.998,0.296,1.758,0.363c0.758,0.066,1.283,0.033,1.571-0.1
			c0.271-0.094,0.486-0.546,0.646-1.359c0.085-0.474,0.106-0.813,0.065-1.016c-0.042-0.202-0.114-0.331-0.218-0.387
			c-0.104-0.057-0.265-0.211-0.48-0.465C258.789,69.892,258.6,69.544,258.438,69.106z"/>
		<path fill="#5B5959" d="M268.001,69.752c0.865,0.252,1.54,0.671,2.021,1.257c0.481,0.587,0.688,1.236,0.617,1.947
			c-0.055,0.348-0.162,0.627-0.32,0.838c-0.16,0.211-0.458,0.454-0.9,0.73c-0.716,0.485-1.282,0.754-1.699,0.81
			c-1.271,0.156-2.058,0.223-2.36,0.198c-0.303-0.023-0.539-0.164-0.708-0.422c-0.481-0.668-0.914-0.549-1.297,0.354
			c-0.125,0.294-0.164,0.55-0.117,0.767s0.179,0.453,0.396,0.707c0.393,0.491,0.787,0.82,1.18,0.986
			c0.354,0.15,1.016,0.281,1.99,0.392c0.972,0.111,1.811,0.154,2.516,0.129c1.098-0.021,1.523,0.263,1.273,0.853
			c-0.116,0.275-0.786,0.501-2.009,0.678c-1.221,0.177-2.237,0.209-3.047,0.099c-1.864-0.305-3.195-1.319-3.992-3.048
			c-0.265-0.576-0.398-1.015-0.398-1.316c0-0.3,0.135-0.822,0.403-1.566c0.379-1.113,0.874-1.98,1.485-2.603
			c0.575-0.59,1.397-1.081,2.468-1.474C266.574,69.675,267.405,69.571,268.001,69.752z M268.07,72.458
			c0.354-0.289,0.36-0.495,0.018-0.617c-0.527-0.178-1.221-0.102-2.078,0.23c-0.141,0.057-0.267,0.107-0.378,0.153
			c-0.833,0.435-1.034,0.743-0.602,0.927c0.216,0.091,0.71,0.046,1.483-0.137C267.285,72.833,267.804,72.648,268.07,72.458z"/>
		<path fill="#5B5959" d="M274.194,74.082c0.296-0.152,0.541-0.17,0.736-0.053c0.193,0.116,0.39,0.402,0.591,0.858
			c0.2,0.456,0.244,0.886,0.131,1.29c-0.114,0.403-0.337,0.674-0.672,0.809c-0.29,0.134-0.708,0.848-1.257,2.145
			c-0.55,1.296-0.765,2.091-0.646,2.385c0.119,0.293,0.541,0.594,1.268,0.902c0.511,0.217,0.804,0.387,0.879,0.512
			c0.074,0.124,0.042,0.354-0.1,0.688c-0.208,0.49-0.592,0.78-1.15,0.867c-0.559,0.088-1.123-0.07-1.693-0.475
			c-0.379-0.253-0.633-0.517-0.759-0.79c-0.128-0.274-0.237-0.767-0.33-1.479l-0.233-1.663l1.438-2.9
			C273.334,75.235,273.933,74.203,274.194,74.082z M276.727,68.517c0.392-0.158,0.771,0.014,1.137,0.517
			c0.366,0.502,0.449,0.989,0.25,1.461c-0.15,0.354-0.384,0.509-0.702,0.468c-0.318-0.043-0.62-0.275-0.905-0.697
			c-0.202-0.34-0.287-0.688-0.251-1.045C276.289,68.865,276.446,68.63,276.727,68.517z"/>
		<path fill="#5B5959" d="M279.93,74.984c0.405-0.083,0.665-0.095,0.779-0.035c0.113,0.061,0.297,0.282,0.55,0.668
			c0.257,0.434,0.593,0.623,1.011,0.567c0.38-0.023,0.849,0.076,1.402,0.299c0.554,0.224,0.96,0.494,1.22,0.813
			c0.29,0.355,0.455,0.936,0.496,1.74c0.041,0.806-0.063,1.503-0.313,2.092c-0.175,0.412-0.512,1.017-1.011,1.813
			c-0.501,0.795-0.943,1.512-1.329,2.147c-0.385,0.636-0.578,1.036-0.576,1.197c-0.011,0.297-0.193,0.591-0.547,0.881l-0.532,0.435
			l-0.558-0.896c-0.023-0.057-0.057-0.116-0.098-0.181c-0.189-0.265-0.276-0.511-0.262-0.736c0.014-0.226,0.193-0.677,0.539-1.354
			c0.345-0.676,0.972-1.76,1.882-3.251c0.782-1.243,0.976-2.055,0.578-2.431c-0.307-0.315-0.906-0.13-1.8,0.558
			c-0.438,0.324-0.784,0.688-1.036,1.09c-0.252,0.403-0.603,1.135-1.053,2.195c-0.591,1.395-1.016,2.275-1.275,2.64
			c-0.259,0.366-0.547,0.481-0.86,0.349c-0.354-0.15-0.583-0.375-0.687-0.674c-0.105-0.299-0.087-0.727,0.056-1.279
			c0.141-0.555,0.322-1.115,0.54-1.684c0.218-0.568,0.505-1.355,0.862-2.363c0.358-1.006,0.666-1.953,0.926-2.84
			c0.204-0.7,0.372-1.15,0.503-1.351C279.469,75.195,279.666,75.057,279.93,74.984z"/>
		<path fill="#5B5959" d="M291.07,79.532c0.866,0.252,1.54,0.671,2.021,1.257s0.688,1.236,0.618,1.947
			c-0.056,0.348-0.162,0.627-0.321,0.838c-0.159,0.21-0.458,0.454-0.9,0.73c-0.716,0.484-1.282,0.754-1.699,0.809
			c-1.271,0.156-2.058,0.223-2.36,0.199c-0.302-0.024-0.539-0.164-0.708-0.422c-0.481-0.668-0.913-0.549-1.296,0.354
			c-0.125,0.294-0.165,0.55-0.117,0.767c0.047,0.217,0.178,0.453,0.396,0.707c0.393,0.49,0.787,0.819,1.18,0.986
			c0.353,0.149,1.016,0.281,1.989,0.392c0.972,0.111,1.811,0.154,2.517,0.128c1.099-0.021,1.523,0.264,1.273,0.854
			c-0.117,0.275-0.787,0.501-2.009,0.678s-2.238,0.209-3.048,0.098c-1.864-0.304-3.194-1.319-3.992-3.047
			c-0.265-0.576-0.398-1.015-0.398-1.316c0-0.301,0.135-0.822,0.403-1.566c0.38-1.113,0.875-1.981,1.486-2.603
			c0.575-0.59,1.397-1.081,2.467-1.474C289.643,79.455,290.475,79.35,291.07,79.532z M291.14,82.238
			c0.354-0.289,0.361-0.495,0.018-0.617c-0.527-0.178-1.22-0.102-2.079,0.23c-0.141,0.057-0.266,0.107-0.377,0.153
			c-0.834,0.435-1.035,0.743-0.602,0.927c0.216,0.091,0.71,0.046,1.483-0.137C290.355,82.613,290.874,82.427,291.14,82.238z"/>
		<path fill="#5B5959" d="M154.061,43.83c0.201-0.146,0.441-0.138,0.719,0.026c0.277,0.164,0.503,0.422,0.679,0.774
			c0.147,0.363,0.125,0.813-0.066,1.345c-0.191,0.533-0.527,1.093-1.006,1.677c-0.446,0.506-1.161,1.946-2.145,4.321
			c-0.984,2.376-1.64,4.224-1.968,5.544c-0.32,1.301-0.606,2.101-0.86,2.398c-0.253,0.298-0.643,0.301-1.168,0.008l-0.817-0.449
			l1.047-2.963c0.698-1.975,1.034-3.095,1.008-3.361c-0.023-0.218-0.381-0.427-1.072-0.628c-0.691-0.2-1.303-0.274-1.835-0.222
			c-0.305,0.01-0.522,0.126-0.652,0.35c-0.129,0.223-0.346,0.803-0.651,1.74c-0.703,2.203-1.137,3.364-1.301,3.48
			c-0.073,0.062-0.247,0.033-0.522-0.083c-0.845-0.358-0.773-1.729,0.215-4.114c0.305-0.774,0.473-1.294,0.504-1.559
			c0.031-0.266-0.059-0.558-0.27-0.88c-0.285-0.421-0.347-0.876-0.186-1.364c0.16-0.488,0.498-0.82,1.013-0.996
			c0.319-0.096,0.6-0.348,0.842-0.755s0.703-1.358,1.384-2.854c0.88-1.968,1.43-3.02,1.651-3.158c0.1-0.073,0.276-0.079,0.529-0.019
			c0.583,0.154,0.841,0.501,0.775,1.041c-0.067,0.539-0.51,1.667-1.33,3.381c-0.997,2.08-1.432,3.216-1.305,3.409
			c0.104,0.137,0.569,0.282,1.396,0.436c0.827,0.154,1.386,0.188,1.678,0.103c0.207-0.051,0.851-1.146,1.93-3.283
			C153.357,45.038,153.952,43.921,154.061,43.83z"/>
		<path fill="#5B5959" d="M154.062,51.372c0.223-0.253,0.432-0.391,0.626-0.412c0.194-0.022,0.508,0.06,0.94,0.242
			c0.786,0.333,1.712,1.346,2.779,3.037c1.067,1.692,1.62,3.011,1.661,3.954c-0.004,0.994-0.225,1.909-0.659,2.744
			c-0.436,0.835-1.05,1.519-1.843,2.051c-0.794,0.533-1.594,0.768-2.4,0.703c-0.471-0.037-0.829-0.108-1.075-0.212
			c-0.246-0.104-0.547-0.337-0.904-0.696c-0.509-0.494-0.904-1.188-1.185-2.083c-0.28-0.896-0.316-1.589-0.108-2.079
			c0.2-0.473,0.233-0.91,0.104-1.313c-0.13-0.402,0.072-1.389,0.61-2.956C153.144,52.784,153.628,51.791,154.062,51.372z
			 M156.853,54.953c-0.647-0.877-1.04-1.373-1.176-1.488c-0.137-0.116-0.363-0.102-0.679,0.042
			c-0.185,0.107-0.266,0.218-0.244,0.331c0.021,0.113,0.15,0.302,0.387,0.563c0.196,0.245,0.311,0.427,0.342,0.545
			c0.031,0.117-0.011,0.366-0.125,0.746c-0.115,0.38-0.351,0.911-0.71,1.594c-0.447,0.945-0.72,1.601-0.815,1.965
			c-0.097,0.365-0.099,0.683-0.005,0.954c0.394,1.094,1.25,1.342,2.57,0.742c1.068-0.497,1.644-1.296,1.728-2.396
			C158.209,57.452,157.785,56.251,156.853,54.953z"/>
		<path fill="#5B5959" d="M165.804,55.48c1.322-0.111,2.42,0.413,3.296,1.571c0.436,0.556,0.677,1.121,0.723,1.696
			c0.045,0.576-0.115,0.994-0.48,1.258c-0.294,0.199-0.547,0.277-0.76,0.233c-0.213-0.044-0.403-0.171-0.569-0.381
			c-0.167-0.209-0.324-0.438-0.473-0.687c-0.15-0.248-0.323-0.496-0.521-0.742c-0.197-0.245-0.403-0.414-0.619-0.506
			c-0.511-0.217-1.166-0.077-1.967,0.417c-0.801,0.495-1.355,1.106-1.663,1.833c-0.184,0.433-0.267,0.999-0.252,1.701
			c0.016,0.701,0.12,1.151,0.314,1.35c0.295,0.287,0.999,0.648,2.112,1.086c1.112,0.437,1.927,0.672,2.446,0.707
			c0.882,0.05,1.27,0.283,1.163,0.701c-0.153,0.469-0.726,0.781-1.719,0.939c-0.577,0.103-1.366,0.023-2.366-0.238
			c-1.001-0.263-1.738-0.574-2.21-0.937c-0.39-0.282-0.796-0.952-1.216-2.011c-0.421-1.059-0.632-1.912-0.634-2.563
			c0-0.439,0.073-0.832,0.22-1.176c0.146-0.344,0.439-0.873,0.883-1.59c0.593-0.906,1.195-1.549,1.807-1.927
			C163.932,55.839,164.76,55.594,165.804,55.48z"/>
		<path fill="#5B5959" d="M175.059,53.738c0.187-0.222,0.482-0.224,0.889-0.006c0.405,0.219,0.673,0.529,0.804,0.932
			c0.125,0.309,0.157,0.56,0.098,0.754c-0.06,0.195-0.252,0.514-0.578,0.954c-0.355,0.453-0.887,1.368-1.599,2.746
			c-0.711,1.379-1.292,2.599-1.742,3.659s-0.663,1.699-0.639,1.918c0.137,0.059,0.828-0.314,2.073-1.119s1.943-1.222,2.094-1.25
			c0.227-0.043,0.611,0.119,1.149,0.486c0.418,0.271,0.687,0.633,0.807,1.09c0.119,0.456,0.086,0.957-0.099,1.504
			c-0.38,1.114-0.658,2.097-0.833,2.949c-0.177,0.852-0.204,1.408-0.082,1.668c0.112,0.28,0.434,0.562,0.963,0.844
			c0.529,0.281,1,0.551,1.413,0.807c0.413,0.257,0.588,0.511,0.528,0.764c-0.027,0.174-0.156,0.298-0.385,0.375
			c-0.229,0.076-0.588,0.115-1.076,0.117c-0.888,0.018-1.594-0.148-2.117-0.498c-0.525-0.35-0.95-0.93-1.279-1.74
			c-0.263-0.691-0.37-1.355-0.319-1.995c0.051-0.639,0.287-1.563,0.708-2.775c0.383-1.066-0.541-0.692-2.769,1.12
			c-0.5,0.414-1.077,0.899-1.729,1.456c-0.808,0.7-1.392,1.056-1.755,1.064c-0.363,0.009-0.676-0.333-0.939-1.024
			c-0.049-0.159-0.084-0.267-0.106-0.322c-0.023-0.057-0.041-0.14-0.052-0.248c-0.012-0.109,0-0.22,0.036-0.332
			s0.074-0.241,0.112-0.387c0.038-0.146,0.114-0.34,0.229-0.582c0.114-0.24,0.235-0.502,0.367-0.781
			c0.13-0.281,0.312-0.656,0.546-1.125c0.233-0.469,0.468-0.953,0.705-1.457c0.235-0.502,0.537-1.145,0.904-1.928
			c0.367-0.782,0.745-1.578,1.134-2.387C174.062,55.679,174.908,53.929,175.059,53.738z"/>
		<path fill="#5B5959" d="M187.257,65.546c1.391-0.221,2.511,0.335,3.359,1.668c0.361,0.57,0.557,1.065,0.588,1.482
			c0.031,0.42-0.104,0.682-0.403,0.786c-0.196,0.079-0.698-0.157-1.507-0.708c-0.719-0.49-1.272-0.73-1.659-0.721
			s-0.688,0.271-0.904,0.78c-0.101,0.236-0.113,0.457-0.038,0.662c0.075,0.206,0.246,0.458,0.514,0.757
			c0.521,0.521,0.928,0.845,1.222,0.97c0.295,0.125,0.651,0.515,1.07,1.166c0.418,0.653,0.693,1.262,0.824,1.827
			c0.104,0.414,0.124,0.719,0.065,0.913c-0.06,0.195-0.258,0.499-0.595,0.912c-0.809,0.978-1.729,1.55-2.76,1.715
			c-1.032,0.165-2.017-0.096-2.953-0.782c-0.937-0.687-1.684-1.716-2.237-3.086c-0.393-0.932-0.569-1.597-0.526-1.996
			c0.042-0.399,0.308-0.634,0.802-0.702c0.273-0.046,0.499,0.078,0.676,0.373c0.176,0.295,0.328,0.661,0.456,1.097
			c0.128,0.437,0.318,0.877,0.57,1.319c0.252,0.442,0.573,0.793,0.962,1.052c0.39,0.258,0.935,0.35,1.638,0.276
			c1.148-0.14,1.793-0.457,1.934-0.953c0.142-0.497-0.261-1.025-1.204-1.588c-1.174-0.729-1.956-1.442-2.342-2.14
			c-0.389-0.697-0.444-1.51-0.168-2.435c0.282-0.83,0.628-1.454,1.037-1.872C186.086,65.903,186.612,65.645,187.257,65.546z"/>
		<path fill="#5B5959" d="M197.152,68.768c1.322-0.111,2.42,0.413,3.296,1.571c0.437,0.556,0.677,1.121,0.724,1.697
			c0.045,0.575-0.115,0.994-0.48,1.256c-0.294,0.2-0.547,0.277-0.76,0.234c-0.214-0.044-0.403-0.171-0.569-0.381
			c-0.167-0.209-0.324-0.438-0.474-0.687c-0.149-0.249-0.322-0.496-0.52-0.742c-0.197-0.245-0.403-0.414-0.619-0.506
			c-0.511-0.217-1.166-0.077-1.967,0.417c-0.801,0.496-1.355,1.106-1.663,1.833c-0.184,0.433-0.268,0.999-0.252,1.7
			c0.016,0.702,0.12,1.152,0.314,1.35c0.295,0.288,0.998,0.649,2.111,1.086c1.112,0.438,1.928,0.674,2.446,0.708
			c0.882,0.05,1.27,0.283,1.163,0.7c-0.153,0.47-0.726,0.782-1.719,0.94c-0.577,0.103-1.366,0.023-2.367-0.238
			c-1.001-0.263-1.737-0.575-2.209-0.937c-0.391-0.282-0.796-0.952-1.216-2.011c-0.421-1.058-0.632-1.913-0.635-2.563
			c0.001-0.439,0.074-0.832,0.221-1.176c0.146-0.344,0.439-0.874,0.883-1.59c0.592-0.906,1.194-1.549,1.807-1.927
			S196.107,68.882,197.152,68.768z"/>
		<path fill="#5B5959" d="M206.406,67.026c0.187-0.222,0.482-0.224,0.889-0.006c0.405,0.219,0.673,0.529,0.804,0.933
			c0.125,0.308,0.157,0.559,0.098,0.753c-0.06,0.195-0.253,0.514-0.578,0.954c-0.354,0.453-0.888,1.368-1.599,2.746
			c-0.712,1.379-1.292,2.598-1.742,3.658s-0.664,1.7-0.639,1.919c0.137,0.058,0.828-0.315,2.073-1.12s1.943-1.221,2.094-1.25
			c0.227-0.043,0.609,0.119,1.149,0.488c0.418,0.27,0.687,0.633,0.807,1.089c0.119,0.456,0.086,0.957-0.099,1.505
			c-0.38,1.113-0.658,2.096-0.833,2.948c-0.177,0.852-0.204,1.407-0.082,1.669c0.112,0.279,0.434,0.561,0.963,0.842
			c0.529,0.283,1,0.552,1.413,0.809c0.412,0.256,0.587,0.51,0.527,0.762c-0.027,0.174-0.156,0.299-0.385,0.376
			c-0.229,0.076-0.588,0.115-1.074,0.117c-0.889,0.018-1.594-0.148-2.118-0.498s-0.95-0.93-1.278-1.74
			c-0.264-0.691-0.37-1.356-0.319-1.995s0.287-1.564,0.708-2.775c0.382-1.066-0.541-0.693-2.769,1.12
			c-0.5,0.413-1.077,0.899-1.73,1.456c-0.807,0.701-1.392,1.056-1.754,1.064c-0.363,0.008-0.676-0.333-0.939-1.023
			c-0.048-0.16-0.083-0.268-0.105-0.324c-0.023-0.056-0.041-0.139-0.052-0.247c-0.012-0.109,0-0.22,0.036-0.333
			c0.036-0.111,0.073-0.24,0.112-0.387c0.038-0.146,0.114-0.339,0.229-0.58c0.114-0.241,0.236-0.503,0.367-0.783
			c0.13-0.28,0.312-0.655,0.545-1.124c0.233-0.469,0.468-0.954,0.705-1.456c0.236-0.503,0.538-1.146,0.904-1.929
			c0.367-0.782,0.745-1.579,1.134-2.388C205.409,68.967,206.255,67.217,206.406,67.026z"/>
		<path fill="#5B5959" d="M216.208,77.437c0.462-0.383,0.957-0.29,1.48,0.279c0.48,0.505,0.627,1.008,0.439,1.507
			c-0.098,0.284-0.304,0.497-0.62,0.642c-0.355,0.127-0.95,1.202-1.783,3.224c-0.835,2.021-1.195,3.229-1.085,3.624
			c0.278,0.929,1.151,0.974,2.618,0.137c0.517-0.291,0.91-0.576,1.18-0.855c0.27-0.28,0.462-0.557,0.579-0.832
			c0.116-0.275,0.332-0.757,0.647-1.446c0.314-0.688,0.688-1.405,1.119-2.149c0.328-0.557,0.577-0.908,0.744-1.058
			s0.367-0.197,0.6-0.146c0.39,0.119,0.705,0.415,0.945,0.887c0.164,0.325,0.225,0.576,0.184,0.756
			c-0.042,0.18-0.252,0.525-0.63,1.037c-0.75,1.002-1.65,3.182-2.702,6.535c-0.149,0.517-0.42,0.813-0.811,0.891
			c-0.393,0.076-0.65-0.119-0.776-0.59c-0.065-0.283-0.141-0.447-0.224-0.494c-0.085-0.048-0.272-0.029-0.563,0.057
			c-0.432,0.142-1.045,0.252-1.844,0.33c-0.797,0.079-1.295,0.076-1.491-0.007c-0.354-0.149-0.716-0.702-1.087-1.659
			c-0.371-0.957-0.522-1.733-0.454-2.33c0.073-0.664,0.599-2.15,1.577-4.459C215.229,79.009,215.88,77.715,216.208,77.437z"/>
		<path fill="#5B5959" d="M227.747,76.698c0.232-0.11,0.51-0.067,0.833,0.127c0.322,0.195,0.587,0.487,0.794,0.876
			c0.236,0.425-0.166,1.181-1.206,2.269c-0.385,0.417-1.157,1.718-2.314,3.903c-1.159,2.185-1.887,3.713-2.187,4.581
			c-0.21,0.606-0.3,0.997-0.271,1.172c0.031,0.175,0.194,0.349,0.492,0.521c0.446,0.258,0.993,0.363,1.64,0.313
			c0.533-0.052,0.937,0.004,1.215,0.168c0.278,0.164,0.354,0.394,0.23,0.688c-0.092,0.216-0.63,0.475-1.615,0.774
			c-0.986,0.301-1.713,0.433-2.184,0.396c-0.451-0.029-0.946-0.228-1.485-0.595c-0.609-0.421-0.911-0.966-0.905-1.636
			c0.005-0.67,0.322-1.635,0.95-2.898c2.416-4.769,3.922-7.682,4.521-8.737C226.853,77.564,227.35,76.923,227.747,76.698z"/>
		<path fill="#5B5959" d="M234.94,85.064c0.865,0.252,1.54,0.671,2.021,1.257c0.481,0.587,0.687,1.236,0.617,1.948
			c-0.055,0.348-0.162,0.626-0.319,0.837c-0.16,0.21-0.459,0.454-0.901,0.731c-0.716,0.484-1.282,0.754-1.699,0.809
			c-1.271,0.156-2.058,0.223-2.36,0.198s-0.539-0.165-0.708-0.422c-0.481-0.667-0.914-0.549-1.297,0.354
			c-0.125,0.295-0.164,0.55-0.117,0.768c0.047,0.217,0.179,0.452,0.396,0.706c0.393,0.491,0.787,0.819,1.18,0.986
			c0.354,0.149,1.016,0.281,1.99,0.392c0.972,0.111,1.811,0.154,2.516,0.129c1.098-0.021,1.523,0.263,1.273,0.852
			c-0.117,0.275-0.786,0.502-2.009,0.679c-1.221,0.177-2.237,0.21-3.047,0.099c-1.864-0.305-3.195-1.32-3.992-3.048
			c-0.265-0.576-0.398-1.015-0.398-1.315s0.135-0.823,0.403-1.567c0.379-1.113,0.874-1.981,1.486-2.603
			c0.575-0.59,1.397-1.081,2.467-1.474C233.513,84.987,234.345,84.882,234.94,85.064z M235.01,87.771
			c0.354-0.291,0.36-0.496,0.018-0.618c-0.527-0.177-1.221-0.101-2.078,0.23c-0.141,0.057-0.267,0.108-0.378,0.153
			c-0.833,0.435-1.034,0.743-0.602,0.926c0.216,0.092,0.71,0.047,1.483-0.136C234.225,88.145,234.744,87.959,235.01,87.771z"/>
		<path fill="#5B5959" d="M238.233,96.644c0.456-0.201,0.728-0.282,0.816-0.244c0.088,0.037,0.219,0.289,0.392,0.756
			c0.173,0.469,0.195,0.878,0.07,1.229c-0.126,0.354-0.435,0.727-0.927,1.12c-0.472,0.402-0.923,0.524-1.353,0.365
			c-0.431-0.16-0.631-0.522-0.599-1.088C236.659,97.843,237.193,97.13,238.233,96.644z M249.057,83.576
			c0.394-0.272,0.653-0.383,0.782-0.328c0.127,0.054,0.302,0.336,0.526,0.849c0.201,0.456,0.27,0.826,0.206,1.112
			c-0.063,0.286-0.19,0.476-0.38,0.568c-0.19,0.094-0.389,0.195-0.597,0.303c-0.208,0.109-0.341,0.232-0.4,0.37
			c-0.075,0.177-0.327,0.486-0.758,0.93c-0.432,0.442-1.08,1.123-1.944,2.043c-0.865,0.919-1.71,1.888-2.535,2.905
			c-0.935,1.11-1.554,1.832-1.857,2.167c-0.262,0.235-0.577,0.323-0.944,0.26c-0.368-0.063-0.542-0.252-0.523-0.569
			c0.042-0.376,0.823-1.546,2.339-3.51c1.516-1.963,2.554-3.197,3.116-3.701c0.371-0.329,0.872-0.922,1.501-1.779
			C248.217,84.338,248.706,83.798,249.057,83.576z"/>
	</g>
	<g>
		<g>
			<path fill="#5B5959" d="M178.991,93.561c11.159,4.611,13.033,16.196,7.41,26.052c-0.436,0.765,0.938,0.802,1.326,0.586
				c19.762-10.95,40.517-8.474,61.979-5.599c0.878,0.118,2.001-1.12,0.699-1.294c-22.024-2.95-43.278-5.328-63.501,5.877
				c0.442,0.195,0.884,0.391,1.326,0.586c6.016-10.546,3.626-22.576-8.102-27.421C179.394,92.044,177.877,93.1,178.991,93.561
				L178.991,93.561z"/>
		</g>
	</g>
</g>
</svg>
